<?xml version="1.0" standalone="no"?>
<!DOCTYPE svg PUBLIC "-//W3C//DTD SVG 20010904//EN"
 "http://www.w3.org/TR/2001/REC-SVG-20010904/DTD/svg10.dtd">
<svg version="1.0" xmlns="http://www.w3.org/2000/svg"
 width="2776.000000pt" height="1346.000000pt" viewBox="0 0 2776.000000 1346.000000"
 preserveAspectRatio="xMidYMid meet">

<g transform="translate(0.000000,1346.000000) scale(0.100000,-0.100000)"
fill="#000000" stroke="none">
<path d="M13887 11858 c-36 -73 -94 -200 -127 -283 -200 -487 -304 -590 -775
-768 -194 -74 -290 -117 -390 -175 -78 -46 -77 -46 40 -62 108 -16 284 -62
379 -99 419 -167 678 -480 795 -960 16 -65 32 -144 36 -175 4 -31 10 -56 13
-56 16 0 133 100 146 125 9 17 30 84 47 150 69 274 178 474 345 635 171 164
355 257 632 321 80 18 103 28 130 55 51 51 40 127 -22 157 -17 8 -119 43 -226
77 -340 108 -480 195 -622 384 -82 109 -122 199 -228 516 -50 151 -95 279
-100 283 -4 5 -37 -52 -73 -125z"/>
<path d="M15962 10446 c-55 -18 -114 -59 -145 -100 -13 -17 -49 -74 -79 -126
-108 -185 -214 -304 -371 -419 -91 -66 -114 -119 -82 -181 37 -71 145 -101
568 -155 1071 -139 1221 -165 1531 -262 84 -27 120 -43 124 -55 2 -10 13 -18
23 -18 12 0 19 -7 19 -20 0 -13 7 -20 20 -20 15 0 20 -7 20 -25 0 -18 5 -25
20 -25 13 0 20 -7 20 -20 0 -15 7 -20 25 -20 43 0 30 -34 -32 -87 -82 -70
-107 -85 -210 -128 -51 -22 -90 -41 -88 -44 8 -8 290 -1 409 10 192 17 412 76
560 151 96 48 223 134 276 187 169 169 109 310 -227 534 -502 334 -1021 538
-1973 773 -243 61 -339 72 -408 50z"/>
<path d="M11650 10443 c-75 -14 -484 -123 -665 -178 -729 -222 -1169 -417
-1543 -685 -202 -144 -262 -215 -262 -305 0 -66 32 -118 125 -202 83 -77 150
-122 263 -178 214 -105 423 -145 827 -160 l150 -5 -50 25 c-27 13 -80 38 -116
55 -125 58 -256 190 -189 190 13 0 20 7 20 20 0 13 7 20 19 20 13 0 21 8 23
23 2 14 11 23 26 25 14 2 22 10 22 23 0 12 7 19 20 19 11 0 20 6 20 14 0 8 16
17 37 21 21 4 40 10 43 15 6 9 174 58 343 99 200 49 376 78 907 146 831 108
822 106 868 175 20 29 23 45 20 88 -6 64 -33 96 -125 147 -84 48 -163 122
-197 187 -128 238 -218 351 -321 400 -53 25 -70 28 -150 27 -49 -1 -101 -4
-115 -6z"/>
<path d="M3800 10273 c-599 -47 -1100 -273 -1510 -683 -333 -332 -545 -698
-659 -1139 -216 -831 -31 -1735 486 -2376 321 -398 813 -704 1328 -825 493
-117 1020 -75 1610 127 253 87 557 222 663 295 111 77 196 190 237 318 20 61
20 60 10 573 -6 284 -4 339 10 410 46 230 159 334 445 410 l125 33 3 -308 c3
-352 -8 -323 101 -289 80 25 80 10 -3 -57 -75 -61 -216 -204 -278 -282 -49
-61 -129 -179 -172 -254 -35 -60 -147 -309 -141 -314 2 -2 76 35 164 82 88 47
169 86 180 86 15 0 21 -9 26 -40 4 -24 12 -40 20 -40 9 0 16 -17 21 -45 4 -27
12 -45 19 -45 7 0 16 -17 20 -38 12 -71 -74 -221 -205 -357 -90 -93 -110 -127
-117 -201 -6 -61 -5 -62 72 -44 109 24 592 91 765 106 47 4 450 7 895 8 l810
1 48 23 c61 30 83 70 136 234 62 198 72 255 77 448 4 141 1 196 -14 285 -14
79 -21 104 -27 90 -90 -226 -173 -369 -275 -478 -126 -136 -272 -215 -465
-253 -109 -22 -456 -22 -601 0 -202 30 -224 71 -224 410 0 200 3 222 31 229
11 3 19 14 19 26 0 14 6 21 20 21 13 0 20 7 20 20 0 13 7 20 20 20 13 0 20 7
20 20 0 17 7 20 40 20 33 0 40 3 40 20 0 11 3 20 8 20 4 0 39 7 77 14 104 22
281 43 545 66 222 18 494 46 569 56 48 8 81 47 81 99 0 60 -24 85 -142 144
-182 90 -213 129 -220 276 -11 233 -112 266 -558 179 -158 -31 -358 -89 -522
-152 -114 -44 -128 -48 -128 -31 0 12 -7 19 -20 19 -11 0 -20 5 -20 12 0 6 23
57 50 113 65 130 90 243 90 410 0 66 -4 146 -10 178 -11 72 -4 114 21 120 11
3 19 14 19 26 0 12 6 21 14 21 8 0 17 13 21 29 6 27 12 31 58 39 29 6 185 9
347 8 289 -3 296 -3 367 -28 90 -33 172 -85 247 -156 72 -70 169 -198 196
-260 29 -65 66 -100 124 -117 27 -8 51 -13 54 -10 3 2 -3 84 -13 182 -41 434
-77 569 -171 652 -82 72 -79 72 -629 71 -659 0 -629 -3 -1384 121 -266 43
-486 78 -488 76 -2 -2 32 -32 76 -66 104 -80 172 -158 215 -245 70 -143 86
-262 86 -658 l0 -278 -1311 -2 -1312 -3 42 -53 c58 -73 105 -101 229 -134 198
-53 339 -136 423 -248 54 -72 74 -113 101 -207 22 -74 23 -93 22 -418 0 -357
-18 -596 -49 -686 -33 -92 -101 -134 -235 -144 -207 -17 -460 56 -652 186
-196 134 -410 402 -553 694 -177 364 -261 721 -272 1162 -16 633 132 1166 455
1633 81 118 271 309 376 380 396 265 846 262 1199 -7 92 -70 262 -245 343
-353 151 -202 220 -340 344 -688 48 -135 89 -241 92 -236 3 5 20 52 36 105 83
258 110 547 93 978 -8 207 -11 236 -28 260 -31 40 -80 69 -131 76 -88 12 -252
55 -349 91 -54 20 -204 87 -333 149 -320 155 -480 212 -708 255 -190 35 -393
47 -572 33z"/>
<path d="M25920 9934 c-157 -35 -395 -88 -530 -118 -135 -31 -387 -87 -560
-126 -389 -87 -664 -150 -665 -153 -1 -1 -8 -28 -17 -59 l-15 -58 41 -10 c201
-50 329 -155 388 -318 18 -50 22 -91 29 -317 9 -327 11 -969 2 -1097 -5 -86
-8 -98 -25 -98 -11 0 -18 -7 -18 -20 0 -13 -7 -20 -20 -20 -13 0 -20 -7 -20
-20 0 -18 -7 -20 -64 -20 l-65 0 -218 182 c-255 213 -1073 903 -1382 1166
-273 232 -331 265 -485 270 -77 3 -159 -5 -346 -32 -497 -72 -478 -67 -517
-125 -38 -56 -33 -65 71 -116 249 -122 312 -196 336 -395 7 -55 10 -491 8
-1245 l-3 -1160 -24 -85 c-66 -237 -173 -366 -404 -486 -86 -45 -106 -59 -91
-65 23 -9 2207 -9 2249 0 28 6 24 9 -70 59 -194 102 -294 197 -367 347 -75
157 -73 133 -69 1015 2 439 7 786 12 788 5 2 9 12 9 22 0 13 10 20 40 25 24 4
40 12 40 20 0 18 75 29 129 20 44 -7 20 12 551 -435 135 -113 322 -268 415
-344 283 -230 311 -273 340 -515 28 -231 79 -431 152 -590 145 -320 422 -594
760 -753 148 -69 220 -61 266 32 l22 45 1 1975 c0 1086 4 2007 8 2045 28 274
155 503 372 667 55 41 64 58 64 126 0 37 -3 42 -22 41 -13 -1 -151 -30 -308
-65z"/>
<path d="M13667 9128 c-111 -11 -289 -56 -388 -97 -298 -124 -519 -374 -606
-686 -26 -93 -28 -112 -27 -285 0 -168 3 -194 27 -283 56 -207 160 -391 302
-532 80 -79 142 -124 715 -524 445 -310 643 -454 694 -505 27 -28 61 -77 79
-115 75 -160 30 -403 -99 -535 -108 -109 -215 -141 -442 -133 -180 6 -296 33
-445 105 -240 116 -397 267 -651 627 -211 299 -240 336 -246 323 -4 -7 -14
-51 -23 -98 -77 -406 -41 -750 113 -1066 70 -145 119 -170 255 -128 107 32
220 25 435 -29 309 -78 545 -101 814 -78 669 56 997 335 1127 954 31 145 30
353 0 497 -55 259 -193 506 -382 684 -93 88 -188 158 -569 416 -809 548 -871
596 -938 725 -36 69 -38 192 -4 276 65 163 200 232 447 232 148 -1 263 -26
385 -85 70 -34 100 -57 175 -132 60 -61 106 -119 139 -176 97 -167 164 -238
321 -342 196 -130 272 -153 326 -99 43 44 39 83 -30 268 -114 309 -271 618
-354 699 l-43 41 -174 6 c-126 4 -227 14 -360 36 -182 30 -381 52 -450 50 -19
-1 -75 -6 -123 -11z"/>
<path d="M8995 8491 c6 -5 43 -34 84 -64 127 -95 193 -194 228 -347 17 -69 18
-155 18 -1135 0 -984 -1 -1065 -18 -1125 -44 -162 -124 -258 -297 -356 l-105
-59 408 -3 c225 -1 589 -1 810 0 l402 3 -116 77 c-179 118 -251 209 -270 340
-5 35 -9 323 -9 641 0 570 0 577 20 577 13 0 20 7 20 20 0 14 7 20 21 20 12 0
23 8 26 20 4 14 17 21 50 26 39 6 142 0 147 -8 1 -2 108 -136 237 -298 130
-163 347 -442 484 -620 404 -529 619 -787 787 -945 89 -85 174 -135 260 -154
63 -14 218 -26 218 -16 0 4 -15 33 -34 64 -90 149 -143 290 -178 473 -21 111
-22 132 -25 1263 -3 820 -1 1169 7 1217 24 143 89 230 239 321 l86 52 -378 3
c-208 1 -545 1 -749 0 l-370 -3 72 -50 c136 -92 195 -170 236 -310 15 -53 18
-121 21 -607 l4 -547 -35 -7 c-20 -3 -36 -12 -36 -19 0 -14 -43 -25 -94 -25
-38 0 -46 9 -711 860 -490 628 -494 632 -531 663 -77 64 -59 62 -519 65 -275
2 -416 -1 -410 -7z"/>
<path d="M15350 8485 c0 -2 33 -28 73 -58 90 -67 138 -120 175 -194 59 -118
57 -68 56 -1308 0 -1113 -1 -1142 -21 -1235 -39 -180 -105 -313 -222 -445 -39
-44 -71 -88 -71 -97 0 -10 7 -35 16 -57 15 -37 18 -40 47 -34 117 21 327 84
542 161 405 146 529 178 728 189 l118 6 -97 96 c-110 109 -167 189 -183 259
-14 56 -20 575 -8 645 7 37 12 47 28 47 12 0 19 7 19 20 0 13 7 20 20 20 13 0
20 7 20 20 0 13 7 20 20 20 13 0 20 7 20 19 0 15 10 21 40 26 22 4 40 12 40
20 0 7 14 15 31 19 40 8 647 8 687 0 18 -4 32 -14 35 -25 4 -14 14 -19 41 -19
29 0 36 -4 36 -20 0 -15 7 -20 25 -20 18 0 25 -5 25 -20 0 -13 7 -20 20 -20
14 0 20 -7 20 -24 0 -13 5 -26 12 -28 8 -3 13 -81 16 -285 6 -384 -7 -450
-109 -558 -51 -54 -86 -74 -309 -177 -33 -16 22 -17 808 -17 463 -1 842 1 842
3 0 2 -47 31 -105 65 -172 100 -248 196 -280 350 -14 63 -15 219 -13 1169 l3
1097 23 64 c44 122 99 187 236 277 l59 39 -387 3 c-213 1 -558 1 -767 0 l-380
-3 125 -88 c139 -98 198 -156 227 -223 19 -41 20 -71 22 -432 2 -373 1 -388
-19 -427 -14 -29 -34 -47 -70 -65 l-49 -25 -435 0 c-430 1 -436 1 -482 23 -27
12 -48 29 -48 37 0 8 -6 15 -14 15 -18 0 -26 31 -26 104 0 32 -7 136 -16 230
-32 347 3 516 141 676 31 36 89 90 130 120 41 30 74 58 75 63 0 4 -335 7 -745
7 -410 0 -745 -2 -745 -5z"/>
<path d="M19086 8472 c5 -5 77 -39 159 -77 294 -133 379 -190 419 -275 20 -43
21 -64 24 -425 2 -208 0 -390 -3 -404 -6 -24 -7 -23 -31 17 -37 61 -85 82
-229 98 -159 18 -202 17 -251 -5 -62 -28 -83 -66 -94 -165 -21 -177 -82 -267
-219 -322 -41 -16 -91 -45 -112 -65 -33 -30 -39 -42 -39 -77 0 -28 7 -49 23
-67 20 -23 36 -28 157 -45 74 -10 216 -21 315 -25 99 -3 214 -11 256 -16 113
-16 171 5 216 77 10 15 12 -76 10 -436 -2 -444 -3 -456 -24 -502 -41 -89 -163
-180 -279 -208 -23 -6 -54 -20 -68 -31 -28 -22 -76 -91 -76 -109 0 -7 310 -10
947 -10 790 0 945 2 933 13 -32 29 -199 126 -280 162 -158 70 -223 126 -251
214 -8 22 -14 146 -16 329 l-5 292 31 6 c25 5 31 11 31 33 0 20 6 13 29 -34
15 -33 39 -70 53 -82 30 -28 732 -374 736 -363 5 14 -47 160 -89 250 -75 160
-174 293 -325 441 -94 90 -243 213 -291 238 -54 28 -113 -3 -136 -71 -9 -24
-17 -34 -25 -29 -9 5 -12 147 -12 567 -1 618 2 656 61 782 66 139 173 206 439
277 96 26 177 49 179 51 2 2 -486 4 -1084 4 -599 0 -1085 -4 -1079 -8z"/>
<path d="M17472 4275 c-398 -70 -725 -357 -846 -741 -28 -92 -56 -273 -56
-367 0 -298 109 -567 310 -766 247 -245 570 -353 962 -322 148 11 230 27 395
73 l112 31 145 -31 c178 -39 237 -41 267 -9 19 20 21 30 16 105 -4 45 -2 82 3
82 5 0 11 -8 13 -17 4 -17 5 -17 6 0 1 14 11 17 57 17 l57 0 -6 -67 c-6 -79
10 -129 45 -142 13 -4 325 -11 693 -15 369 -3 705 -9 747 -12 75 -7 77 -6 107
23 33 34 45 69 72 227 39 225 36 333 -9 351 -20 8 -240 7 -253 -1 -5 -3 -9 9
-9 25 0 24 -4 31 -20 31 -13 0 -20 7 -20 20 0 13 -7 20 -20 20 -17 0 -20 7
-20 39 0 30 4 40 20 44 11 3 20 11 20 19 0 10 19 12 84 10 80 -4 84 -3 105 23
17 23 21 41 21 109 0 44 9 155 20 246 19 161 19 166 1 190 -16 22 -27 25 -85
28 l-66 3 0 59 c0 53 2 60 20 60 14 0 20 7 20 23 0 21 4 22 71 22 89 0 99 11
99 107 0 89 -27 354 -41 395 -6 18 -24 42 -40 54 l-30 21 -740 -1 c-485 0
-746 -4 -758 -11 -11 -5 -22 -18 -25 -28 -3 -9 1 -177 9 -372 23 -549 20 -658
-16 -667 -9 -3 -19 -13 -22 -24 -4 -16 -14 -19 -61 -19 l-56 0 0 50 c0 61 -22
107 -56 120 -16 7 -80 7 -177 0 -102 -6 -196 -6 -285 1 -74 6 -149 8 -168 5
-68 -13 -75 -55 -49 -296 20 -188 20 -210 -5 -210 -13 0 -20 -7 -20 -20 0 -13
-7 -20 -19 -20 -10 0 -21 -6 -24 -14 -13 -34 -266 -48 -372 -21 -177 46 -291
181 -314 373 -16 126 2 239 53 340 75 148 213 232 386 235 154 2 261 -39 398
-153 98 -82 118 -86 183 -36 86 65 271 298 284 356 9 42 -17 90 -94 168 -120
123 -272 207 -470 259 -83 23 -121 26 -281 29 -129 2 -210 -1 -268 -11z"/>
<path d="M10227 4256 c-10 -12 -78 -174 -152 -361 -73 -187 -209 -533 -303
-770 -256 -648 -352 -905 -352 -945 0 -30 44 -60 106 -71 36 -7 152 -10 299
-7 210 3 244 5 268 21 34 22 59 71 88 170 19 66 26 78 48 84 14 3 32 12 39 20
11 10 73 13 288 13 235 0 275 -2 280 -15 4 -8 15 -15 26 -15 22 0 38 -32 63
-129 36 -140 46 -144 344 -149 128 -2 267 -1 309 3 65 6 80 11 105 36 25 26
28 34 22 69 l-7 40 41 0 41 0 0 -45 c0 -35 6 -52 25 -70 l24 -25 290 0 c191 0
298 4 314 11 40 18 47 50 47 199 l0 140 35 0 c28 0 35 4 35 20 0 17 7 20 40
20 33 0 40 -3 40 -19 0 -14 8 -21 29 -23 27 -3 36 -16 113 -168 52 -104 93
-171 110 -183 38 -28 153 -35 197 -12 34 17 30 9 154 287 l52 117 68 1 c60 0
67 -2 67 -20 0 -15 7 -20 25 -20 l25 0 0 -146 0 -146 29 -29 29 -29 301 0
c316 0 338 3 362 46 14 26 9 328 -12 731 -9 179 -8 315 7 760 19 578 18 584
-28 602 -13 4 -153 6 -313 3 l-290 -5 -25 -28 c-14 -15 -103 -183 -199 -373
-98 -196 -180 -346 -188 -346 -7 0 -13 -9 -13 -20 0 -13 -7 -20 -20 -20 -13 0
-20 -7 -20 -20 0 -19 -7 -20 -105 -20 -98 0 -105 1 -105 20 0 12 -7 20 -18 20
-13 0 -62 91 -197 367 -99 202 -191 380 -203 395 l-24 28 -167 0 c-92 0 -230
-3 -307 -7 -128 -6 -140 -8 -162 -30 -22 -22 -24 -31 -19 -76 19 -160 30
-1284 14 -1379 -5 -31 -13 -48 -23 -48 -8 0 -14 -9 -14 -20 0 -14 -7 -20 -21
-20 -12 0 -23 -8 -26 -20 -5 -17 -14 -20 -64 -20 -52 0 -59 2 -59 19 0 15 -8
21 -31 23 -30 3 -31 5 -220 463 -238 578 -402 961 -446 1046 -19 36 -44 72
-56 78 -16 8 -111 13 -307 15 -277 2 -285 2 -303 -18z"/>
<path d="M15080 4255 c-11 -12 -74 -158 -139 -326 -65 -167 -220 -561 -344
-876 -227 -574 -313 -802 -323 -853 -9 -44 29 -79 101 -90 71 -12 449 -12 518
-1 70 12 95 42 132 158 31 96 33 98 68 107 21 5 37 16 37 23 0 19 571 15 578
-4 2 -7 10 -13 17 -13 9 0 22 -28 35 -72 36 -127 52 -160 90 -183 33 -19 51
-20 335 -20 273 0 303 2 328 18 45 29 52 57 32 118 -40 122 -159 423 -360 909
-377 910 -453 1082 -491 1107 -19 12 -76 15 -308 17 -280 2 -287 2 -306 -19z"/>
<path d="M7414 4241 c-89 -7 -129 -26 -136 -63 -2 -13 0 -147 6 -298 12 -360
12 -1085 -1 -1425 -5 -148 -6 -280 -2 -292 19 -53 19 -53 540 -60 525 -7 635
-1 806 42 110 28 242 88 326 149 77 54 209 192 262 271 125 190 184 387 184
615 0 131 -15 231 -53 343 -89 266 -262 475 -481 585 -138 69 -341 116 -570
133 -133 9 -755 9 -881 0z m958 -559 c85 -30 139 -66 202 -132 104 -109 142
-224 133 -405 -9 -194 -74 -319 -215 -417 -93 -64 -259 -94 -381 -68 -59 12
-60 13 -66 51 -4 24 -12 39 -21 39 -8 0 -14 9 -14 20 0 10 -8 23 -17 29 -17 9
-18 37 -18 371 0 262 3 363 12 368 6 4 14 23 18 44 5 24 13 38 26 41 11 3 19
14 19 26 0 14 6 21 20 21 14 0 20 7 20 21 0 21 3 22 113 16 75 -3 131 -12 169
-25z"/>
</g>
</svg>
